HIERARCHY
ROOT Hips
{
	OFFSET 0.000000 0.000000 0.000000
	CHANNELS 6 Xposition Yposition Zposition Zrotation Yrotation Xrotation 
	JOINT LHipJoint
	{
		OFFSET 0.000000 0.000000 0.000000
		CHANNELS 3 Zrotation Yrotation Xrotation
		JOINT LeftUpLeg
		{
			OFFSET 1.363060 -1.794630 0.839290
			CHANNELS 3 Zrotation Yrotation Xrotation
			JOINT LeftLeg
			{
				OFFSET 2.448110 -6.726130 0.000000
				CHANNELS 3 Zrotation Yrotation Xrotation
				JOINT LeftFoot
				{
					OFFSET 2.562200 -7.039590 0.000000
					CHANNELS 3 Zrotation Yrotation Xrotation
					JOINT LeftToeBase
					{
						OFFSET 0.157640 -0.433110 2.322550
						CHANNELS 3 Zrotation Yrotation Xrotation
						End Site
						{
							OFFSET 0.000000 0.000000 0.000000
						}
					}
				}
			}
		}
	}
	JOINT RHipJoint
	{
		OFFSET 0.000000 0.000000 0.000000
		CHANNELS 3 Zrotation Yrotation Xrotation
		JOINT RightUpLeg
		{
			OFFSET -1.305520 -1.794630 0.839290
			CHANNELS 3 Zrotation Yrotation Xrotation
			JOINT RightLeg
			{
				OFFSET -2.542530 -6.985550 0.000000
				CHANNELS 3 Zrotation Yrotation Xrotation
				JOINT RightFoot
				{
					OFFSET -2.568260 -7.056230 0.000000
					CHANNELS 3 Zrotation Yrotation Xrotation
					JOINT RightToeBase
					{
						OFFSET -0.164730 -0.452590 2.363150
						CHANNELS 3 Zrotation Yrotation Xrotation
						End Site
						{
							OFFSET 0.000000 0.000000 0.000000
						}
					}
				}
			}
		}
	}
}
MOTION
Frames: 33
Frame Time: 0.008333
-8.760971 16.770427 -0.959046 167.333349 87.328635 -167.261050 -11.840764 2.041235 -3.167862 -2.827152 5.035848 -8.215785 -0.849684 1.758040 28.756797 0.324528 -3.887575 13.391325 -1.420300 0.000000 -86.731700 7.349597 0.118194 1.643308 10.631748 10.369424 -46.856674 2.743953 -0.592385 17.276571 -0.561162 -2.377237 1.000160 -1.112700 -0.000000 -25.596100
-8.551236 16.744050 -0.938595 175.146938 87.386406 -159.584321 -11.966841 2.043346 -3.214815 -2.108847 5.450004 -8.718002 -0.716938 1.903607 30.727922 0.421108 -4.217219 14.961027 -1.705600 0.000000 -85.774400 7.277314 0.078223 1.609232 10.938163 11.185793 -47.297559 2.560795 -0.911793 20.502376 -0.692212 -2.681922 -0.250879 -1.063400 0.000000 -20.959500
-8.345393 16.723775 -0.916607 -178.324313 87.394723 -153.200485 -12.105599 2.031313 -3.243752 -1.468089 5.700739 -9.320643 -0.578707 2.049759 32.837649 0.543338 -4.308331 16.534427 -1.928600 0.000000 -83.713300 7.186384 0.066851 1.528040 11.289802 11.830710 -47.554643 2.398729 -1.175551 23.461490 -0.824625 -2.968131 -1.683343 -0.981400 -0.000000 -17.171301
-8.143534 16.709565 -0.892830 -173.329873 87.348605 -148.355272 -12.246668 1.994280 -3.258580 -0.909838 5.794411 -10.025296 -0.436318 2.190586 35.076100 0.684162 -4.112148 18.005153 -2.039499 0.000000 -80.542600 7.083639 0.066665 1.411904 11.685074 12.301566 -47.605526 2.268398 -1.383763 26.062298 -0.961881 -3.250072 -3.256195 -0.870500 0.000000 -14.208900
-7.945624 16.701138 -0.867070 -169.869794 87.255546 -145.044897 -12.376157 1.931436 -3.262415 -0.440379 5.749347 -10.833532 -0.294141 2.324966 37.422349 0.836456 -3.587493 19.266624 -1.990099 0.000000 -76.383100 6.981761 0.068187 1.271306 12.118805 12.599306 -47.446591 2.176089 -1.540540 28.252069 -1.103434 -3.524616 -4.921872 -0.732200 -0.000000 -11.970001
-7.751349 16.698093 -0.839025 -167.801928 87.129403 -143.121508 -12.483409 1.847969 -3.258046 -0.067100 5.591294 -11.745278 -0.156197 2.454481 39.844177 0.994614 -2.709697 20.230114 -1.745800 -0.000000 -71.491600 6.892235 0.067670 1.114633 12.578879 12.729554 -47.089799 2.123092 -1.651421 30.009682 -1.245097 -3.776945 -6.621154 -0.569800 -0.000000 -10.337400
-7.560257 16.699954 -0.808697 -166.811973 86.983569 -142.266416 -12.566379 1.750424 -3.246508 0.214484 5.353459 -12.759998 -0.024522 2.581503 42.302749 1.155327 -1.485274 20.836707 -1.299800 -0.000000 -66.245000 6.819087 0.062181 0.951048 13.055431 12.710359 -46.553424 2.107097 -1.721113 31.332756 -1.381139 -3.993026 -8.281264 -0.391499 -0.000001 -9.202600
-7.371849 16.706292 -0.775912 -166.760578 86.831483 -142.333059 -12.620728 1.644793 -3.229093 0.394886 5.056489 -13.869371 0.100969 2.706147 44.750401 1.317463 0.060905 21.060063 -0.669000 -0.000000 -61.027500 6.769443 0.052637 0.786119 13.523433 12.554058 -45.872159 2.122114 -1.756462 32.249177 -1.502801 -4.148492 -9.832060 -0.207900 0.000000 -8.467600
-7.185586 16.716802 -0.740816 -167.411731 86.683928 -143.078485 -12.648150 1.534853 -3.205831 0.477896 4.722928 -15.066013 0.220810 2.827565 47.141396 1.481050 1.871164 20.899888 0.101600 -0.000000 -56.173900 6.743981 0.038530 0.626837 13.965908 12.286079 -45.082249 2.161172 -1.763043 32.796512 -1.602212 -4.228138 -11.206272 -0.033300 -0.000000 -8.034300
-7.001024 16.731269 -0.703700 -168.578320 86.551006 -144.308521 -12.650814 1.422441 -3.176981 0.468293 4.370691 -16.340963 0.335178 2.943696 49.432147 1.646064 3.868620 20.372386 0.950300 -0.000000 -51.889600 6.742270 0.019875 0.479218 14.366542 11.935240 -44.223222 2.216681 -1.746667 33.025453 -1.672632 -4.221590 -12.352070 0.118700 0.000001 -7.801200
-6.817824 16.749598 -0.664945 -170.095244 86.443245 -145.850972 -12.631700 1.307945 -3.143511 0.374089 4.016192 -17.684996 0.443247 3.052193 51.583639 1.811332 5.962474 19.501017 1.805900 0.000000 -48.205200 6.762134 -0.003271 0.348467 14.713655 11.534560 -43.333532 2.281313 -1.713007 32.994532 -1.709996 -4.126774 -13.238331 0.237500 -0.000000 -7.669699
-6.635787 16.771853 -0.625080 -171.811146 86.371232 -147.548537 -12.594427 1.190761 -3.105858 0.206320 3.672249 -19.087701 0.543242 3.150262 53.556815 1.975198 8.060216 18.329086 2.600101 0.000000 -45.177500 6.799564 -0.031011 0.239228 15.001418 11.119552 -42.446494 2.348636 -1.667096 32.762860 -1.713827 -3.951398 -13.855551 0.317801 0.000000 -7.551300
-6.454888 16.798107 -0.584603 -173.608169 86.347114 -149.279451 -12.541962 1.069918 -3.066048 -0.023035 3.350544 -20.537587 0.632378 3.235932 55.319173 2.133971 10.069705 16.898474 3.272199 -0.000000 -42.680500 6.850175 -0.062967 0.153925 15.229040 10.723924 -41.588026 2.413460 -1.613549 32.387414 -1.686747 -3.709414 -14.215360 0.360100 0.000000 -7.388300
-6.275207 16.828481 -0.544034 -175.395452 86.382760 -150.951782 -12.476770 0.944657 -3.026029 -0.301526 3.059750 -22.020876 0.707379 3.307564 56.841389 2.283271 11.910266 15.263098 3.778200 0.000001 -40.596800 6.909378 -0.098577 0.093092 15.400347 10.375562 -40.774163 2.472231 -1.556015 31.916656 -1.633846 -3.418911 -14.345562 0.369300 -0.000000 -7.154000
-6.096909 16.863050 -0.503766 -177.118089 86.489581 -152.512649 -12.400331 0.814763 -2.987736 -0.617152 2.805108 -23.521843 0.764870 3.364032 58.099280 2.418156 13.516529 13.483928 4.094900 0.000000 -38.795700 6.973221 -0.136937 0.055109 15.522391 10.093939 -40.010514 2.523059 -1.497078 31.387818 -1.561338 -3.098017 -14.283985 0.353000 -0.000000 -6.851800
-5.920167 16.901794 -0.464035 -178.761157 86.676286 -153.951985 -12.313129 0.680781 -2.952893 -0.959808 2.589359 -25.023958 0.801860 3.404695 59.075857 2.533773 14.843120 11.623018 4.220599 0.000000 -37.158700 7.038937 -0.176942 0.036472 15.604124 9.887320 -39.293945 2.565737 -1.438234 30.825532 -1.475347 -2.761645 -14.072763 0.319500 -0.000000 -6.509000
-5.745132 16.944524 -0.424985 179.658490 86.949041 -155.294325 -12.214953 0.543433 -2.923200 -1.320512 2.412138 -26.508115 0.816236 3.429023 59.757939 2.626972 15.870701 9.757506 4.178300 0.000000 -35.686800 7.104848 -0.217105 0.031376 15.655059 9.753809 -38.611728 2.601342 -1.379904 30.241083 -1.381025 -2.420483 -13.751298 0.275900 0.000000 -6.169200
-5.571861 16.991054 -0.386548 178.084606 87.309397 -156.607582 -12.105242 0.405058 -2.900027 -1.692055 2.275877 -27.957127 0.806523 3.437698 60.144719 2.694423 16.593922 7.926326 3.996000 0.000000 -34.096400 7.170771 -0.256426 0.034448 15.684841 9.681990 -37.944269 2.632007 -1.321471 29.632771 -1.281762 -2.079411 -13.350720 0.227600 0.000000 -5.883800
-5.400318 17.040648 -0.348382 176.278873 87.752303 -158.132075 -11.979768 0.267646 -2.880820 -2.075657 2.166976 -29.365285 0.773689 3.429228 60.238767 2.737832 17.043739 6.210435 3.726399 -0.000000 -32.667600 7.241292 -0.291870 0.041093 15.693711 9.652468 -37.288598 2.659688 -1.262901 29.002557 -1.179214 -1.735208 -12.900679 0.178800 -0.000000 -5.671801
-5.230264 17.093030 -0.310445 174.059867 88.272108 -160.066259 -11.838038 0.134230 -2.867912 -2.460035 2.093975 -30.712415 0.718009 3.405467 60.048319 2.757816 17.249635 4.620509 3.402900 0.000000 -31.088200 7.317616 -0.323266 0.045959 15.695072 9.647945 -36.610529 2.687257 -1.202155 28.326641 -1.073558 -1.387488 -12.402832 0.130800 0.000001 -5.609600
-5.061545 17.147190 -0.272098 170.555250 88.851696 -163.284444 -11.668143 0.009109 -2.858769 -2.851183 2.041238 -31.996910 0.642833 3.363948 59.588067 2.759134 17.264969 3.189278 3.065900 0.000000 -29.548800 7.414373 -0.345632 0.046903 15.681983 9.643100 -35.913459 2.716072 -1.140714 27.606744 -0.963149 -1.023788 -11.867219 0.085300 0.000001 -5.702000
-4.893656 17.202601 -0.233255 164.014063 89.457219 -169.545956 -11.453503 -0.106483 -2.853745 -3.231321 2.005251 -33.211081 0.553703 3.299990 58.875086 2.746641 17.139414 1.910654 2.738200 0.000000 -27.959300 7.549076 -0.358641 0.046086 15.668974 9.624394 -35.183222 2.749497 -1.080084 26.821578 -0.846917 -0.642456 -11.279575 0.042399 -0.000000 -5.986601
-4.726227 17.258475 -0.193631 147.392595 89.929181 174.100110 -11.155129 -0.249092 -2.858545 -3.577125 1.945204 -34.343297 0.475326 3.177627 57.939545 2.725262 16.919651 0.774671 2.435500 -0.000000 -26.416400 7.757795 -0.389176 0.056921 15.664628 9.563581 -34.438687 2.796737 -1.037657 25.952824 -0.725928 -0.249553 -10.636904 0.003300 0.000001 -6.468300
-4.558809 17.314095 -0.153114 94.624913 89.617104 121.573422 -11.068525 -0.629807 -2.850474 -4.033842 1.731029 -35.352165 0.433010 2.954708 56.785794 2.696484 16.642295 -0.237312 2.162200 0.000000 -24.964899 7.738665 -0.640081 0.065231 15.508456 9.356757 -33.730756 2.852547 -1.031297 24.999185 -0.605670 0.151207 -9.965773 -0.030199 -0.000000 -7.131100
-4.391013 17.368839 -0.111757 43.876269 88.702485 71.081193 -11.181488 -0.780443 -2.778726 -4.638322 1.658609 -36.333762 0.250097 2.919152 55.309373 2.673857 16.372552 -1.154867 1.916800 -0.000000 -23.651600 7.554271 -0.727309 -0.012129 15.230491 9.196872 -32.916735 2.852101 -0.933264 24.119102 -0.460274 0.674770 -9.174414 -0.055600 0.000000 -7.944400
-4.222478 17.422216 -0.069710 28.126989 87.845882 55.586336 -11.028670 -0.813627 -2.716575 -5.097355 1.603254 -37.249958 0.064968 2.854687 53.627679 2.656682 16.098653 -2.014586 1.694800 -0.000000 -22.517900 7.634852 -0.696997 -0.066093 15.048737 9.068417 -32.079841 2.861968 -0.844297 23.196731 -0.307242 1.218061 -8.282948 -0.069300 0.000001 -8.866300
-4.052821 17.473759 -0.027503 21.846185 87.066979 49.556528 -10.826697 -0.864977 -2.643005 -5.502226 1.480802 -38.072669 -0.112664 2.742640 51.729964 2.643582 15.821986 -2.830774 1.491100 0.000000 -21.566700 7.758984 -0.681905 -0.107252 14.857013 8.926228 -31.257889 2.874793 -0.772344 22.251192 -0.154540 1.767324 -7.329976 -0.068100 -0.000000 -9.764800
-3.882167 17.523047 0.014980 18.708703 86.322346 46.662382 -10.611558 -0.921849 -2.551483 -5.876871 1.288712 -38.778245 -0.293641 2.597880 49.588425 2.634490 15.543960 -3.602419 1.305000 -0.000000 -20.912199 7.895532 -0.674429 -0.147191 14.623950 8.778870 -30.449671 2.880474 -0.713343 21.327072 -0.003383 2.325390 -6.317953 -0.049100 0.000000 -10.799200
-3.710026 17.569703 0.056761 16.685047 85.604919 44.883989 -10.395618 -0.978879 -2.434825 -6.187766 1.030139 -39.373835 -0.479478 2.426543 47.196966 2.627667 15.252923 -4.318544 1.137600 0.000000 -20.499600 8.028604 -0.670264 -0.183607 14.372209 8.662339 -29.657769 2.879147 -0.662081 20.438626 0.139874 2.870910 -5.283165 -0.011700 0.000000 -11.727600
-3.536429 17.613347 0.097531 15.175731 84.908073 43.619870 -10.180707 -1.033716 -2.293117 -6.423183 0.705757 -39.843901 -0.668555 2.227953 44.544138 2.620424 14.940270 -4.955197 0.993800 -0.000000 -20.321800 8.156495 -0.666011 -0.218984 14.105182 8.589424 -28.881206 2.869097 -0.619319 19.608396 0.271905 3.391339 -4.245271 0.043000 -0.000000 -12.647100
-3.361354 17.653483 0.136924 13.867996 84.230365 42.554450 -9.970696 -1.086420 -2.125081 -6.564411 0.322123 -40.181607 -0.856443 2.001065 41.627732 2.609189 14.599245 -5.470815 0.883100 0.000000 -20.408399 8.274874 -0.661167 -0.252931 13.835901 8.573470 -28.116201 2.851304 -0.584334 18.851176 0.389209 3.872585 -3.239825 0.111600 0.000000 -13.506200
-3.184780 17.689600 0.174594 12.607348 83.569239 41.531692 -9.769167 -1.138628 -1.933101 -6.599284 -0.107932 -40.386167 -1.038329 1.745823 38.458406 2.589978 14.225457 -5.832995 0.812100 -0.000000 -20.676101 8.380621 -0.655668 -0.286902 13.576428 8.621295 -27.357878 2.826927 -0.556667 18.174637 0.489969 4.302903 -2.288515 0.189400 0.000000 -14.385100
-3.006743 17.721178 0.210409 11.316754 82.923395 40.469688 -9.580440 -1.191577 -1.719302 -6.520795 -0.564726 -40.464208 -1.208512 1.463616 35.062031 2.558798 13.818935 -6.009475 0.786600 0.000000 -21.091300 8.471184 -0.650598 -0.320190 13.339904 8.734008 -26.600570 2.798389 -0.535191 17.583270 0.573595 4.676173 -1.419869 0.270600 -0.000000 -15.268000
